<?xml version="1.0" encoding="UTF-8"?>
<!DOCTYPE svg PUBLIC "-//W3C//DTD SVG 1.1//EN" "http://www.w3.org/Graphics/SVG/1.1/DTD/svg11.dtd">
<svg width="213mm" height="136mm" viewBox="0 0 21300 13600" version="1.1" xmlns="http://www.w3.org/2000/svg" xmlns:xlink="http://www.w3.org/1999/xlink" stroke-width="28.222" stroke-linejoin="round" xml:space="preserve">
 <path fill="rgb(255,255,255)" stroke="none" d="M 10627,13533 L -13,13533 -13,-13 21266,-13 21266,13533 10627,13533 Z"/>
 <path fill="none" stroke="rgb(179,179,179)" stroke-linejoin="round" d="M 9078,11553 L 1219,11553 1219,2594 16937,2594 16937,11553 9078,11553 Z"/>
 <path fill="none" stroke="rgb(179,179,179)" stroke-linejoin="round" d="M 16937,11552 L 1219,11552"/>
 <path fill="none" stroke="rgb(179,179,179)" stroke-linejoin="round" d="M 16937,9760 L 1219,9760"/>
 <path fill="none" stroke="rgb(179,179,179)" stroke-linejoin="round" d="M 16937,7968 L 1219,7968"/>
 <path fill="none" stroke="rgb(179,179,179)" stroke-linejoin="round" d="M 16937,6176 L 1219,6176"/>
 <path fill="none" stroke="rgb(179,179,179)" stroke-linejoin="round" d="M 16937,4384 L 1219,4384"/>
 <path fill="none" stroke="rgb(179,179,179)" stroke-linejoin="round" d="M 16937,2593 L 1219,2593"/>
 <path fill="none" stroke="rgb(179,179,179)" stroke-linejoin="round" d="M 1219,11702 L 1219,11552"/>
 <path fill="none" stroke="rgb(179,179,179)" stroke-linejoin="round" d="M 1219,11702 L 1219,11552"/>
 <path fill="none" stroke="rgb(179,179,179)" stroke-linejoin="round" d="M 2528,11702 L 2528,11552"/>
 <path fill="none" stroke="rgb(179,179,179)" stroke-linejoin="round" d="M 2528,11702 L 2528,11552"/>
 <path fill="none" stroke="rgb(179,179,179)" stroke-linejoin="round" d="M 3838,11702 L 3838,11552"/>
 <path fill="none" stroke="rgb(179,179,179)" stroke-linejoin="round" d="M 3838,11702 L 3838,11552"/>
 <path fill="none" stroke="rgb(179,179,179)" stroke-linejoin="round" d="M 5148,11702 L 5148,11552"/>
 <path fill="none" stroke="rgb(179,179,179)" stroke-linejoin="round" d="M 5148,11702 L 5148,11552"/>
 <path fill="none" stroke="rgb(179,179,179)" stroke-linejoin="round" d="M 6458,11702 L 6458,11552"/>
 <path fill="none" stroke="rgb(179,179,179)" stroke-linejoin="round" d="M 6458,11702 L 6458,11552"/>
 <path fill="none" stroke="rgb(179,179,179)" stroke-linejoin="round" d="M 7768,11702 L 7768,11552"/>
 <path fill="none" stroke="rgb(179,179,179)" stroke-linejoin="round" d="M 7768,11702 L 7768,11552"/>
 <path fill="none" stroke="rgb(179,179,179)" stroke-linejoin="round" d="M 9078,11702 L 9078,11552"/>
 <path fill="none" stroke="rgb(179,179,179)" stroke-linejoin="round" d="M 9078,11702 L 9078,11552"/>
 <path fill="none" stroke="rgb(179,179,179)" stroke-linejoin="round" d="M 10388,11702 L 10388,11552"/>
 <path fill="none" stroke="rgb(179,179,179)" stroke-linejoin="round" d="M 10388,11702 L 10388,11552"/>
 <path fill="none" stroke="rgb(179,179,179)" stroke-linejoin="round" d="M 11697,11702 L 11697,11552"/>
 <path fill="none" stroke="rgb(179,179,179)" stroke-linejoin="round" d="M 11697,11702 L 11697,11552"/>
 <path fill="none" stroke="rgb(179,179,179)" stroke-linejoin="round" d="M 13007,11702 L 13007,11552"/>
 <path fill="none" stroke="rgb(179,179,179)" stroke-linejoin="round" d="M 13007,11702 L 13007,11552"/>
 <path fill="none" stroke="rgb(179,179,179)" stroke-linejoin="round" d="M 14317,11702 L 14317,11552"/>
 <path fill="none" stroke="rgb(179,179,179)" stroke-linejoin="round" d="M 14317,11702 L 14317,11552"/>
 <path fill="none" stroke="rgb(179,179,179)" stroke-linejoin="round" d="M 15627,11702 L 15627,11552"/>
 <path fill="none" stroke="rgb(179,179,179)" stroke-linejoin="round" d="M 15627,11702 L 15627,11552"/>
 <path fill="none" stroke="rgb(179,179,179)" stroke-linejoin="round" d="M 16937,11702 L 16937,11552"/>
 <path fill="none" stroke="rgb(179,179,179)" stroke-linejoin="round" d="M 16937,11702 L 16937,11552"/>
 <path fill="none" stroke="rgb(179,179,179)" stroke-linejoin="round" d="M 1219,11552 L 16937,11552"/>
 <path fill="none" stroke="rgb(179,179,179)" stroke-linejoin="round" d="M 1069,11552 L 1219,11552"/>
 <path fill="none" stroke="rgb(179,179,179)" stroke-linejoin="round" d="M 1069,11552 L 1219,11552"/>
 <path fill="none" stroke="rgb(179,179,179)" stroke-linejoin="round" d="M 1069,9760 L 1219,9760"/>
 <path fill="none" stroke="rgb(179,179,179)" stroke-linejoin="round" d="M 1069,9760 L 1219,9760"/>
 <path fill="none" stroke="rgb(179,179,179)" stroke-linejoin="round" d="M 1069,7968 L 1219,7968"/>
 <path fill="none" stroke="rgb(179,179,179)" stroke-linejoin="round" d="M 1069,7968 L 1219,7968"/>
 <path fill="none" stroke="rgb(179,179,179)" stroke-linejoin="round" d="M 1069,6177 L 1219,6177"/>
 <path fill="none" stroke="rgb(179,179,179)" stroke-linejoin="round" d="M 1069,6177 L 1219,6177"/>
 <path fill="none" stroke="rgb(179,179,179)" stroke-linejoin="round" d="M 1069,4385 L 1219,4385"/>
 <path fill="none" stroke="rgb(179,179,179)" stroke-linejoin="round" d="M 1069,4385 L 1219,4385"/>
 <path fill="none" stroke="rgb(179,179,179)" stroke-linejoin="round" d="M 1069,2593 L 1219,2593"/>
 <path fill="none" stroke="rgb(179,179,179)" stroke-linejoin="round" d="M 1069,2593 L 1219,2593"/>
 <path fill="none" stroke="rgb(179,179,179)" stroke-linejoin="round" d="M 1219,11552 L 1219,2593"/>
 <path fill="rgb(0,69,134)" stroke="none" d="M 15845,11552 L 16282,11552 16282,8469 15845,8469 15845,11552 Z"/>
 <path fill="rgb(0,69,134)" stroke="none" d="M 14535,11552 L 14972,11552 14972,9329 14535,9329 14535,11552 Z"/>
 <path fill="rgb(0,69,134)" stroke="none" d="M 13225,11552 L 13662,11552 13662,10046 13225,10046 13225,11552 Z"/>
 <path fill="rgb(0,69,134)" stroke="none" d="M 11915,11552 L 12352,11552 12352,9903 11915,9903 11915,11552 Z"/>
 <path fill="rgb(0,69,134)" stroke="none" d="M 10606,11552 L 11042,11552 11042,10942 10606,10942 10606,11552 Z"/>
 <path fill="rgb(0,69,134)" stroke="none" d="M 9296,11552 L 9733,11552 9733,11086 9296,11086 9296,11552 Z"/>
 <path fill="rgb(0,69,134)" stroke="none" d="M 7986,11552 L 8423,11552 8423,11301 7986,11301 7986,11552 Z"/>
 <path fill="rgb(0,69,134)" stroke="none" d="M 6676,11552 L 7113,11552 7113,11121 6676,11121 6676,11552 Z"/>
 <path fill="rgb(0,69,134)" stroke="none" d="M 5367,11552 L 5803,11552 5803,11444 5367,11444 5367,11552 Z"/>
 <path fill="rgb(0,69,134)" stroke="none" d="M 4057,11552 L 4493,11552 4493,11408 4057,11408 4057,11552 Z"/>
 <path fill="rgb(0,69,134)" stroke="none" d="M 2747,11552 L 3183,11552 3183,11014 2747,11014 2747,11552 Z"/>
 <path fill="rgb(0,69,134)" stroke="none" d="M 1437,11552 L 1873,11552 1873,11050 1437,11050 1437,11552 Z"/>
 <path fill="rgb(255,66,14)" stroke="none" d="M 16282,11552 L 16718,11552 16718,7179 16282,7179 16282,11552 Z"/>
 <path fill="rgb(255,66,14)" stroke="none" d="M 14972,11552 L 15408,11552 15408,3596 14972,3596 14972,11552 Z"/>
 <path fill="rgb(255,66,14)" stroke="none" d="M 13662,11552 L 14098,11552 14098,8362 13662,8362 13662,11552 Z"/>
 <path fill="rgb(255,66,14)" stroke="none" d="M 12352,11552 L 12788,11552 12788,9831 12352,9831 12352,11552 Z"/>
 <path fill="rgb(255,66,14)" stroke="none" d="M 11042,11552 L 11479,11552 11479,8290 11042,8290 11042,11552 Z"/>
 <path fill="rgb(255,66,14)" stroke="none" d="M 9733,11552 L 10170,11552 10170,6248 9733,6248 9733,11552 Z"/>
 <path fill="rgb(255,66,14)" stroke="none" d="M 8423,11552 L 8860,11552 8860,9903 8423,9903 8423,11552 Z"/>
 <path fill="rgb(255,66,14)" stroke="none" d="M 7113,11552 L 7550,11552 7550,10369 7113,10369 7113,11552 Z"/>
 <path fill="rgb(255,66,14)" stroke="none" d="M 5803,11552 L 6240,11552 6240,8971 5803,8971 5803,11552 Z"/>
 <path fill="rgb(255,66,14)" stroke="none" d="M 4493,11552 L 4930,11552 4930,10440 4493,10440 4493,11552 Z"/>
 <path fill="rgb(255,66,14)" stroke="none" d="M 3183,11552 L 3620,11552 3620,10871 3183,10871 3183,11552 Z"/>
 <path fill="rgb(255,66,14)" stroke="none" d="M 1873,11552 L 2310,11552 2310,11516 1873,11516 1873,11552 Z"/>
 <text class="SVGTextShape" transform="rotate(-44.9 1095 12888)"><tspan class="TextParagraph" font-family="Liberation Sans, sans-serif" font-size="353px" font-weight="400"><tspan class="TextPosition" x="1095" y="12888"><tspan fill="rgb(0,0,0)" stroke="none" style="white-space: pre">January</tspan></tspan></tspan></text>
 <text class="SVGTextShape" transform="rotate(-44.9 2312 12981)"><tspan class="TextParagraph" font-family="Liberation Sans, sans-serif" font-size="353px" font-weight="400"><tspan class="TextPosition" x="2312" y="12981"><tspan fill="rgb(0,0,0)" stroke="none" style="white-space: pre">February</tspan></tspan></tspan></text>
 <text class="SVGTextShape" transform="rotate(-44.9 3902 12701)"><tspan class="TextParagraph" font-family="Liberation Sans, sans-serif" font-size="353px" font-weight="400"><tspan class="TextPosition" x="3902" y="12701"><tspan fill="rgb(0,0,0)" stroke="none" style="white-space: pre">March</tspan></tspan></tspan></text>
 <text class="SVGTextShape" transform="rotate(-44.9 5400 12513)"><tspan class="TextParagraph" font-family="Liberation Sans, sans-serif" font-size="353px" font-weight="400"><tspan class="TextPosition" x="5400" y="12513"><tspan fill="rgb(0,0,0)" stroke="none" style="white-space: pre">April</tspan></tspan></tspan></text>
 <text class="SVGTextShape" transform="rotate(-44.9 6728 12495)"><tspan class="TextParagraph" font-family="Liberation Sans, sans-serif" font-size="353px" font-weight="400"><tspan class="TextPosition" x="6728" y="12495"><tspan fill="rgb(0,0,0)" stroke="none" style="white-space: pre">May</tspan></tspan></tspan></text>
 <text class="SVGTextShape" transform="rotate(-44.9 7982 12551)"><tspan class="TextParagraph" font-family="Liberation Sans, sans-serif" font-size="353px" font-weight="400"><tspan class="TextPosition" x="7982" y="12551"><tspan fill="rgb(0,0,0)" stroke="none" style="white-space: pre">June</tspan></tspan></tspan></text>
 <text class="SVGTextShape" transform="rotate(-44.9 9367 12477)"><tspan class="TextParagraph" font-family="Liberation Sans, sans-serif" font-size="353px" font-weight="400"><tspan class="TextPosition" x="9367" y="12477"><tspan fill="rgb(0,0,0)" stroke="none" style="white-space: pre">July</tspan></tspan></tspan></text>
 <text class="SVGTextShape" transform="rotate(-44.9 10358 12795)"><tspan class="TextParagraph" font-family="Liberation Sans, sans-serif" font-size="353px" font-weight="400"><tspan class="TextPosition" x="10358" y="12795"><tspan fill="rgb(0,0,0)" stroke="none" style="white-space: pre">August</tspan></tspan></tspan></text>
 <text class="SVGTextShape" transform="rotate(-44.9 11257 13207)"><tspan class="TextParagraph" font-family="Liberation Sans, sans-serif" font-size="353px" font-weight="400"><tspan class="TextPosition" x="11257" y="13207"><tspan fill="rgb(0,0,0)" stroke="none" style="white-space: pre">September</tspan></tspan></tspan></text>
 <text class="SVGTextShape" transform="rotate(-44.9 12885 12888)"><tspan class="TextParagraph" font-family="Liberation Sans, sans-serif" font-size="353px" font-weight="400"><tspan class="TextPosition" x="12885" y="12888"><tspan fill="rgb(0,0,0)" stroke="none" style="white-space: pre">October</tspan></tspan></tspan></text>
 <text class="SVGTextShape" transform="rotate(-44.9 13952 13131)"><tspan class="TextParagraph" font-family="Liberation Sans, sans-serif" font-size="353px" font-weight="400"><tspan class="TextPosition" x="13952" y="13131"><tspan fill="rgb(0,0,0)" stroke="none" style="white-space: pre">November</tspan></tspan></tspan></text>
 <text class="SVGTextShape" transform="rotate(-44.9 15261 13131)"><tspan class="TextParagraph" font-family="Liberation Sans, sans-serif" font-size="353px" font-weight="400"><tspan class="TextPosition" x="15261" y="13131"><tspan fill="rgb(0,0,0)" stroke="none" style="white-space: pre">December</tspan></tspan></tspan></text>
 <text class="SVGTextShape"><tspan class="TextParagraph" font-family="Liberation Sans, sans-serif" font-size="353px" font-weight="400"><tspan class="TextPosition" x="784" y="11673"><tspan fill="rgb(0,0,0)" stroke="none" style="white-space: pre">0</tspan></tspan></tspan></text>
 <text class="SVGTextShape"><tspan class="TextParagraph" font-family="Liberation Sans, sans-serif" font-size="353px" font-weight="400"><tspan class="TextPosition" x="599" y="9881"><tspan fill="rgb(0,0,0)" stroke="none" style="white-space: pre">50</tspan></tspan></tspan></text>
 <text class="SVGTextShape"><tspan class="TextParagraph" font-family="Liberation Sans, sans-serif" font-size="353px" font-weight="400"><tspan class="TextPosition" x="413" y="8089"><tspan fill="rgb(0,0,0)" stroke="none" style="white-space: pre">100</tspan></tspan></tspan></text>
 <text class="SVGTextShape"><tspan class="TextParagraph" font-family="Liberation Sans, sans-serif" font-size="353px" font-weight="400"><tspan class="TextPosition" x="413" y="6297"><tspan fill="rgb(0,0,0)" stroke="none" style="white-space: pre">150</tspan></tspan></tspan></text>
 <text class="SVGTextShape"><tspan class="TextParagraph" font-family="Liberation Sans, sans-serif" font-size="353px" font-weight="400"><tspan class="TextPosition" x="413" y="4505"><tspan fill="rgb(0,0,0)" stroke="none" style="white-space: pre">200</tspan></tspan></tspan></text>
 <text class="SVGTextShape"><tspan class="TextParagraph" font-family="Liberation Sans, sans-serif" font-size="353px" font-weight="400"><tspan class="TextPosition" x="413" y="2713"><tspan fill="rgb(0,0,0)" stroke="none" style="white-space: pre">250</tspan></tspan></tspan></text>
 <text class="SVGTextShape"><tspan class="TextParagraph" font-family="Liberation Sans, sans-serif" font-size="459px" font-weight="400"><tspan class="TextPosition" x="9833" y="928"><tspan fill="rgb(0,0,0)" stroke="none" style="white-space: pre">Stability</tspan></tspan></tspan></text>
 <text class="SVGTextShape"><tspan class="TextParagraph" font-family="Liberation Sans, sans-serif" font-size="388px" font-weight="400"><tspan class="TextPosition" x="9105" y="1928"><tspan fill="rgb(0,0,0)" stroke="none" style="white-space: pre">Reported Defects</tspan></tspan></tspan></text>
 <path fill="rgb(0,69,134)" stroke="none" d="M 17584,6616 L 17478,6616 17478,6405 17689,6405 17689,6616 17584,6616 Z"/>
 <path fill="rgb(255,66,14)" stroke="none" d="M 17584,7113 L 17478,7113 17478,6902 17689,6902 17689,7113 17584,7113 Z"/>
 <text class="SVGTextShape"><tspan class="TextParagraph" font-family="Liberation Sans, sans-serif" font-size="353px" font-weight="400"><tspan class="TextPosition" x="17789" y="6630"><tspan fill="rgb(0,0,0)" stroke="none" style="white-space: pre">DaC Project 2022</tspan></tspan></tspan></text>
 <text class="SVGTextShape"><tspan class="TextParagraph" font-family="Liberation Sans, sans-serif" font-size="353px" font-weight="400"><tspan class="TextPosition" x="17789" y="7127"><tspan fill="rgb(0,0,0)" stroke="none" style="white-space: pre">Legacy Project 2020</tspan></tspan></tspan></text>
</svg>