<?xml version="1.0" encoding="UTF-8" standalone="no"?><svg xmlns="http://www.w3.org/2000/svg" xmlns:xlink="http://www.w3.org/1999/xlink" contentScriptType="application/ecmascript" contentStyleType="text/css" height="378px" preserveAspectRatio="none" style="width:378px;height:378px;" version="1.1" viewBox="0 0 378 378" width="378px" zoomAndPan="magnify"><defs><filter height="300%" id="f5taieq5ewhkq" width="300%" x="-1" y="-1"><feGaussianBlur result="blurOut" stdDeviation="2.0"/><feColorMatrix in="blurOut" result="blurOut2" type="matrix" values="0 0 0 0 0 0 0 0 0 0 0 0 0 0 0 0 0 0 .4 0"/><feOffset dx="4.0" dy="4.0" in="blurOut2" result="blurOut3"/><feBlend in="SourceGraphic" in2="blurOut3" mode="normal"/></filter></defs><g><!--MD5=[059f2fbd0d96009f51d8ba7dc7e8d720]
entity WOR_001--><a href="../posts/2021/process_documentation.html#WOR_001" target="_top" title="../posts/2021/process_documentation.html#WOR_001" xlink:actuate="onRequest" xlink:href="../posts/2021/process_documentation.html#WOR_001" xlink:show="new" xlink:title="../posts/2021/process_documentation.html#WOR_001" xlink:type="simple"><polygon fill="#FFCC00" filter="url(#f5taieq5ewhkq)" points="104.5,18,114.5,8,273.5,8,273.5,69.9063,263.5,79.9063,104.5,79.9063,104.5,18" style="stroke: #000000; stroke-width: 1.5;"/><line style="stroke: #000000; stroke-width: 1.5;" x1="263.5" x2="272.5" y1="18" y2="9"/><line style="stroke: #000000; stroke-width: 1.5;" x1="104.5" x2="263.5" y1="18" y2="18"/><line style="stroke: #000000; stroke-width: 1.5;" x1="263.5" x2="263.5" y1="18" y2="79.9063"/><text fill="#000000" font-family="sans-serif" font-size="12" lengthAdjust="spacingAndGlyphs" textLength="55" x="119.5" y="39.1387">Workflow</text><text fill="#000000" font-family="sans-serif" font-size="14" font-weight="bold" lengthAdjust="spacingAndGlyphs" textLength="129" x="119.5" y="54.9639">Workflow object</text><text fill="#000000" font-family="sans-serif" font-size="10" lengthAdjust="spacingAndGlyphs" textLength="47" x="119.5" y="67.5479">WOR_001</text></a><!--MD5=[5b2f5189008b4118e22957d950ea111f]
entity ACT_001--><a href="../posts/2021/process_documentation.html#ACT_001" target="_top" title="../posts/2021/process_documentation.html#ACT_001" xlink:actuate="onRequest" xlink:href="../posts/2021/process_documentation.html#ACT_001" xlink:show="new" xlink:title="../posts/2021/process_documentation.html#ACT_001" xlink:type="simple"><rect fill="#BFD8D2" filter="url(#f5taieq5ewhkq)" height="61.9063" style="stroke: #000000; stroke-width: 1.5;" width="132" x="123" y="157"/><text fill="#000000" font-family="sans-serif" font-size="12" lengthAdjust="spacingAndGlyphs" textLength="43" x="133" y="178.1387">Activity</text><text fill="#000000" font-family="sans-serif" font-size="14" font-weight="bold" lengthAdjust="spacingAndGlyphs" textLength="112" x="133" y="193.9639">Activity object</text><text fill="#000000" font-family="sans-serif" font-size="10" lengthAdjust="spacingAndGlyphs" textLength="43" x="133" y="206.5479">ACT_001</text></a><!--MD5=[02476323ff03315e2607dd609f3192cf]
entity ART_001--><a href="../posts/2021/process_documentation.html#ART_001" target="_top" title="../posts/2021/process_documentation.html#ART_001" xlink:actuate="onRequest" xlink:href="../posts/2021/process_documentation.html#ART_001" xlink:show="new" xlink:title="../posts/2021/process_documentation.html#ART_001" xlink:type="simple"><rect fill="#FEDCD2" filter="url(#f5taieq5ewhkq)" height="64.9063" style="stroke: #000000; stroke-width: 1.5;" width="142" x="219" y="299"/><polygon fill="#FEDCD2" points="344,304,344,318,356,318,356,310,350,304,344,304" style="stroke: #000000; stroke-width: 1.5;"/><line style="stroke: #000000; stroke-width: 1.5;" x1="350" x2="350" y1="304" y2="310"/><line style="stroke: #000000; stroke-width: 1.5;" x1="356" x2="350" y1="310" y2="310"/><text fill="#000000" font-family="sans-serif" font-size="12" lengthAdjust="spacingAndGlyphs" textLength="45" x="229" y="323.1387">Artifact</text><text fill="#000000" font-family="sans-serif" font-size="14" font-weight="bold" lengthAdjust="spacingAndGlyphs" textLength="112" x="229" y="338.9639">Artifact object</text><text fill="#000000" font-family="sans-serif" font-size="10" lengthAdjust="spacingAndGlyphs" textLength="42" x="229" y="351.5479">ART_001</text></a><!--MD5=[bb8a1b80a28061a92a175dad17a77576]
entity STO_001--><a href="../posts/2021/process_documentation.html#STO_001" target="_top" title="../posts/2021/process_documentation.html#STO_001" xlink:actuate="onRequest" xlink:href="../posts/2021/process_documentation.html#STO_001" xlink:show="new" xlink:title="../posts/2021/process_documentation.html#STO_001" xlink:type="simple"><path d="M6,306 C6,296 74,296 74,296 C74,296 142,296 142,306 L142,356.9063 C142,366.9063 74,366.9063 74,366.9063 C74,366.9063 6,366.9063 6,356.9063 L6,306 " fill="#DF744A" filter="url(#f5taieq5ewhkq)" style="stroke: #000000; stroke-width: 1.5;"/><path d="M6,306 C6,316 74,316 74,316 C74,316 142,316 142,306 " fill="none" style="stroke: #000000; stroke-width: 1.5;"/><text fill="#000000" font-family="sans-serif" font-size="12" lengthAdjust="spacingAndGlyphs" textLength="50" x="16" y="331.1387">Storage</text><text fill="#000000" font-family="sans-serif" font-size="14" font-weight="bold" lengthAdjust="spacingAndGlyphs" textLength="116" x="16" y="346.9639">Storage object</text><text fill="#000000" font-family="sans-serif" font-size="10" lengthAdjust="spacingAndGlyphs" textLength="43" x="16" y="359.5479">STO_001</text></a><!--MD5=[eea0c33d07d521c50330e29759581d7d]
link WOR_001 to ACT_001--><path d="M189,80.1 C189,101.85 189,129.69 189,151.51 " fill="none" id="WOR_001-&gt;ACT_001" style="stroke: #777777; stroke-width: 1.0;"/><polygon fill="#777777" points="189,156.63,193,147.63,189,151.63,185,147.63,189,156.63" style="stroke: #777777; stroke-width: 1.0;"/><text fill="#000000" font-family="sans-serif" font-size="13" lengthAdjust="spacingAndGlyphs" textLength="58" x="190" y="123.0669">executes</text><!--MD5=[4d837e90e942f322780d830b72eda20d]
link ACT_001 to ART_001--><path d="M180.75,219.23 C178.36,234.18 178.19,251.97 186,266 C192.86,278.32 203.14,288.58 214.62,297.03 " fill="none" id="ACT_001-&gt;ART_001" style="stroke: #AA0000; stroke-width: 1.0;"/><polygon fill="#AA0000" points="218.9,300.06,213.8901,291.5806,214.8275,297.1592,209.2488,298.0966,218.9,300.06" style="stroke: #AA0000; stroke-width: 1.0;"/><text fill="#000000" font-family="sans-serif" font-size="13" lengthAdjust="spacingAndGlyphs" textLength="59" x="187" y="262.0669">produces</text><!--MD5=[6986502a24e8efb533a3f7c527a9a48a]
reverse link ACT_001 to ART_001--><path d="M228.38,222.97 C236.45,231.01 244.46,239.91 251,249 C262,264.28 271.26,283.14 277.99,298.87 " fill="none" id="ACT_001&lt;-ART_001" style="stroke: #00AA00; stroke-width: 1.0;"/><polygon fill="#00AA00" points="224.43,219.09,228.0582,228.2462,228.0011,222.5896,233.6576,222.5325,224.43,219.09" style="stroke: #00AA00; stroke-width: 1.0;"/><text fill="#000000" font-family="sans-serif" font-size="13" lengthAdjust="spacingAndGlyphs" textLength="66" x="263" y="262.0669">consumes</text><!--MD5=[0a62d596298a81acc999685643ddc5ff]
link ACT_001 to STO_001--><path d="M164.61,219.01 C147.35,240.25 124.04,268.93 105.39,291.88 " fill="none" id="ACT_001-&gt;STO_001" style="stroke: #000000; stroke-width: 1.0;"/><polygon fill="#000000" points="102.2,295.8,110.9779,291.3337,105.3513,291.9181,104.7669,286.2915,102.2,295.8" style="stroke: #000000; stroke-width: 1.0;"/><text fill="#000000" font-family="sans-serif" font-size="13" lengthAdjust="spacingAndGlyphs" textLength="30" x="140" y="262.0669">uses</text><!--MD5=[aa7126a0b745aa4cb68ac955e44f0ea5]
link STO_001 to ART_001--><path d="M142.05,331.5 C164.81,331.5 190.33,331.5 213.68,331.5 " fill="none" id="STO_001-&gt;ART_001" style="stroke: #0000AA; stroke-width: 1.0;"/><polygon fill="#0000AA" points="218.94,331.5,209.94,327.5,213.94,331.5,209.94,335.5,218.94,331.5" style="stroke: #0000AA; stroke-width: 1.0;"/><text fill="#000000" font-family="sans-serif" font-size="13" lengthAdjust="spacingAndGlyphs" textLength="40" x="160.5" y="324.5669">stores</text><!--MD5=[41e90729c44f1c424f4e98258fb9fc32]
@startuml


node "<size:12>Workflow</size>\n**Workflow object**\n<size:10>WOR_001</size>" as WOR_001 [[../posts/2021/process_documentation.html#WOR_001]] #FFCC00 
rectangle "<size:12>Activity</size>\n**Activity object**\n<size:10>ACT_001</size>" as ACT_001 [[../posts/2021/process_documentation.html#ACT_001]] #BFD8D2 
artifact "<size:12>Artifact</size>\n**Artifact object**\n<size:10>ART_001</size>" as ART_001 [[../posts/2021/process_documentation.html#ART_001]] #FEDCD2 
database "<size:12>Storage</size>\n**Storage object**\n<size:10>STO_001</size>" as STO_001 [[../posts/2021/process_documentation.html#STO_001]] #DF744A 


WOR_001 -[#777777]-> ACT_001: executes
ACT_001 -[#AA0000]-> ART_001: produces
ACT_001 <-[#00AA00]- ART_001: consumes
ACT_001 -[#000000]-> STO_001: uses
STO_001 -[#0000AA]> ART_001: stores

@enduml

PlantUML version 1.2020.09(Sun May 10 10:51:06 UTC 2020)
(GPL source distribution)
Java Runtime: OpenJDK Runtime Environment
JVM: OpenJDK 64-Bit Server VM
Java Version: 11.0.11+9
Operating System: Linux
Default Encoding: UTF-8
Language: en
Country: null
--></g></svg>