<?xml version="1.0" encoding="UTF-8" standalone="no"?><svg xmlns="http://www.w3.org/2000/svg" xmlns:xlink="http://www.w3.org/1999/xlink" contentScriptType="application/ecmascript" contentStyleType="text/css" height="408px" preserveAspectRatio="none" style="width:378px;height:408px;" version="1.1" viewBox="0 0 378 408" width="378px" zoomAndPan="magnify"><defs><filter height="300%" id="fi4pwnm5hquvk" width="300%" x="-1" y="-1"><feGaussianBlur result="blurOut" stdDeviation="2.0"/><feColorMatrix in="blurOut" result="blurOut2" type="matrix" values="0 0 0 0 0 0 0 0 0 0 0 0 0 0 0 0 0 0 .4 0"/><feOffset dx="4.0" dy="4.0" in="blurOut2" result="blurOut3"/><feBlend in="SourceGraphic" in2="blurOut3" mode="normal"/></filter></defs><g><!--MD5=[059f2fbd0d96009f51d8ba7dc7e8d720]
entity WOR_001--><a href="../posts/2021/process_documents.html#WOR_001" target="_top" title="../posts/2021/process_documents.html#WOR_001" xlink:actuate="onRequest" xlink:href="../posts/2021/process_documents.html#WOR_001" xlink:show="new" xlink:title="../posts/2021/process_documents.html#WOR_001" xlink:type="simple"><polygon fill="#FFCC00" filter="url(#fi4pwnm5hquvk)" points="104.5,18,114.5,8,273.5,8,273.5,69.9063,263.5,79.9063,104.5,79.9063,104.5,18" style="stroke: #000000; stroke-width: 1.5;"/><line style="stroke: #000000; stroke-width: 1.5;" x1="263.5" x2="272.5" y1="18" y2="9"/><line style="stroke: #000000; stroke-width: 1.5;" x1="104.5" x2="263.5" y1="18" y2="18"/><line style="stroke: #000000; stroke-width: 1.5;" x1="263.5" x2="263.5" y1="18" y2="79.9063"/><text fill="#000000" font-family="sans-serif" font-size="12" lengthAdjust="spacingAndGlyphs" textLength="55" x="119.5" y="39.1387">Workflow</text><text fill="#000000" font-family="sans-serif" font-size="14" font-weight="bold" lengthAdjust="spacingAndGlyphs" textLength="129" x="119.5" y="54.9639">Workflow object</text><text fill="#000000" font-family="sans-serif" font-size="10" lengthAdjust="spacingAndGlyphs" textLength="47" x="119.5" y="67.5479">WOR_001</text></a><!--MD5=[5b2f5189008b4118e22957d950ea111f]
entity ACT_001--><a href="../posts/2021/process_documents.html#ACT_001" target="_top" title="../posts/2021/process_documents.html#ACT_001" xlink:actuate="onRequest" xlink:href="../posts/2021/process_documents.html#ACT_001" xlink:show="new" xlink:title="../posts/2021/process_documents.html#ACT_001" xlink:type="simple"><rect fill="#BFD8D2" filter="url(#fi4pwnm5hquvk)" height="61.9063" style="stroke: #000000; stroke-width: 1.5;" width="132" x="123" y="172"/><text fill="#000000" font-family="sans-serif" font-size="12" lengthAdjust="spacingAndGlyphs" textLength="43" x="133" y="193.1387">Activity</text><text fill="#000000" font-family="sans-serif" font-size="14" font-weight="bold" lengthAdjust="spacingAndGlyphs" textLength="112" x="133" y="208.9639">Activity object</text><text fill="#000000" font-family="sans-serif" font-size="10" lengthAdjust="spacingAndGlyphs" textLength="43" x="133" y="221.5479">ACT_001</text></a><!--MD5=[02476323ff03315e2607dd609f3192cf]
entity ART_001--><a href="../posts/2021/process_documents.html#ART_001" target="_top" title="../posts/2021/process_documents.html#ART_001" xlink:actuate="onRequest" xlink:href="../posts/2021/process_documents.html#ART_001" xlink:show="new" xlink:title="../posts/2021/process_documents.html#ART_001" xlink:type="simple"><rect fill="#FEDCD2" filter="url(#fi4pwnm5hquvk)" height="64.9063" style="stroke: #000000; stroke-width: 1.5;" width="142" x="219" y="329"/><polygon fill="#FEDCD2" points="344,334,344,348,356,348,356,340,350,334,344,334" style="stroke: #000000; stroke-width: 1.5;"/><line style="stroke: #000000; stroke-width: 1.5;" x1="350" x2="350" y1="334" y2="340"/><line style="stroke: #000000; stroke-width: 1.5;" x1="356" x2="350" y1="340" y2="340"/><text fill="#000000" font-family="sans-serif" font-size="12" lengthAdjust="spacingAndGlyphs" textLength="45" x="229" y="353.1387">Artifact</text><text fill="#000000" font-family="sans-serif" font-size="14" font-weight="bold" lengthAdjust="spacingAndGlyphs" textLength="112" x="229" y="368.9639">Artifact object</text><text fill="#000000" font-family="sans-serif" font-size="10" lengthAdjust="spacingAndGlyphs" textLength="42" x="229" y="381.5479">ART_001</text></a><!--MD5=[bb8a1b80a28061a92a175dad17a77576]
entity STO_001--><a href="../posts/2021/process_documents.html#STO_001" target="_top" title="../posts/2021/process_documents.html#STO_001" xlink:actuate="onRequest" xlink:href="../posts/2021/process_documents.html#STO_001" xlink:show="new" xlink:title="../posts/2021/process_documents.html#STO_001" xlink:type="simple"><path d="M6,336 C6,326 74,326 74,326 C74,326 142,326 142,336 L142,386.9063 C142,396.9063 74,396.9063 74,396.9063 C74,396.9063 6,396.9063 6,386.9063 L6,336 " fill="#DF744A" filter="url(#fi4pwnm5hquvk)" style="stroke: #000000; stroke-width: 1.5;"/><path d="M6,336 C6,346 74,346 74,346 C74,346 142,346 142,336 " fill="none" style="stroke: #000000; stroke-width: 1.5;"/><text fill="#000000" font-family="sans-serif" font-size="12" lengthAdjust="spacingAndGlyphs" textLength="50" x="16" y="361.1387">Storage</text><text fill="#000000" font-family="sans-serif" font-size="14" font-weight="bold" lengthAdjust="spacingAndGlyphs" textLength="116" x="16" y="376.9639">Storage object</text><text fill="#000000" font-family="sans-serif" font-size="10" lengthAdjust="spacingAndGlyphs" textLength="43" x="16" y="389.5479">STO_001</text></a><!--MD5=[eea0c33d07d521c50330e29759581d7d]
link WOR_001 to ACT_001--><path d="M189,80.23 C189,106.08 189,141.04 189,166.87 " fill="none" id="WOR_001-&gt;ACT_001" style="stroke: #777777; stroke-width: 1.0;"/><polygon fill="#777777" points="189,171.91,193,162.91,189,166.91,185,162.91,189,171.91" style="stroke: #777777; stroke-width: 1.0;"/><text fill="#000000" font-family="sans-serif" font-size="13" lengthAdjust="spacingAndGlyphs" textLength="58" x="190" y="123.0669">executes</text><text fill="#000000" font-family="sans-serif" font-size="13" lengthAdjust="spacingAndGlyphs" textLength="0" x="221" y="138.1997"/><!--MD5=[4d837e90e942f322780d830b72eda20d]
link ACT_001 to ART_001--><path d="M180.51,234.02 C176.9,252.96 175.59,277.29 186,296 C192.86,308.32 203.14,318.58 214.62,327.03 " fill="none" id="ACT_001-&gt;ART_001" style="stroke: #AA0000; stroke-width: 1.0;"/><polygon fill="#AA0000" points="218.9,330.06,213.8901,321.5806,214.8275,327.1592,209.2488,328.0966,218.9,330.06" style="stroke: #AA0000; stroke-width: 1.0;"/><text fill="#000000" font-family="sans-serif" font-size="13" lengthAdjust="spacingAndGlyphs" textLength="59" x="187" y="277.0669">produces</text><text fill="#000000" font-family="sans-serif" font-size="13" lengthAdjust="spacingAndGlyphs" textLength="0" x="218.5" y="292.1997"/><!--MD5=[6986502a24e8efb533a3f7c527a9a48a]
reverse link ACT_001 to ART_001--><path d="M229.09,237.95 C237.03,245.94 244.81,254.82 251,264 C264.43,283.93 274.43,309.2 280.94,328.88 " fill="none" id="ACT_001&lt;-ART_001" style="stroke: #00AA00; stroke-width: 1.0;"/><polygon fill="#00AA00" points="225.19,234.1,228.7812,243.2708,228.7469,237.614,234.4036,237.5798,225.19,234.1" style="stroke: #00AA00; stroke-width: 1.0;"/><text fill="#000000" font-family="sans-serif" font-size="13" lengthAdjust="spacingAndGlyphs" textLength="66" x="269" y="277.0669">consumes</text><text fill="#000000" font-family="sans-serif" font-size="13" lengthAdjust="spacingAndGlyphs" textLength="0" x="304" y="292.1997"/><!--MD5=[0a62d596298a81acc999685643ddc5ff]
link ACT_001 to STO_001--><path d="M162.95,234.04 C155.05,243.47 146.49,254.02 139,264 C125.14,282.47 110.7,303.69 98.96,321.51 " fill="none" id="ACT_001-&gt;STO_001" style="stroke: #000000; stroke-width: 1.0;"/><polygon fill="#000000" points="96.03,325.97,104.3085,320.6346,98.7705,321.7879,97.6172,316.2499,96.03,325.97" style="stroke: #000000; stroke-width: 1.0;"/><text fill="#000000" font-family="sans-serif" font-size="13" lengthAdjust="spacingAndGlyphs" textLength="30" x="140" y="277.0669">uses</text><text fill="#000000" font-family="sans-serif" font-size="13" lengthAdjust="spacingAndGlyphs" textLength="0" x="157" y="292.1997"/><!--MD5=[aa7126a0b745aa4cb68ac955e44f0ea5]
link STO_001 to ART_001--><path d="M142.05,361.5 C164.81,361.5 190.33,361.5 213.68,361.5 " fill="none" id="STO_001-&gt;ART_001" style="stroke: #0000AA; stroke-width: 1.0;"/><polygon fill="#0000AA" points="218.94,361.5,209.94,357.5,213.94,361.5,209.94,365.5,218.94,361.5" style="stroke: #0000AA; stroke-width: 1.0;"/><text fill="#000000" font-family="sans-serif" font-size="13" lengthAdjust="spacingAndGlyphs" textLength="40" x="160.5" y="339.5669">stores</text><text fill="#000000" font-family="sans-serif" font-size="13" lengthAdjust="spacingAndGlyphs" textLength="0" x="182.5" y="354.6997"/><!--MD5=[e8f4b0ff6499ba227d3bbaf3033ecb39]
@startuml


node "<size:12>Workflow</size>\n**Workflow object**\n<size:10>WOR_001</size>" as WOR_001 [[../posts/2021/process_documents.html#WOR_001]] #FFCC00
rectangle "<size:12>Activity</size>\n**Activity object**\n<size:10>ACT_001</size>" as ACT_001 [[../posts/2021/process_documents.html#ACT_001]] #BFD8D2
artifact "<size:12>Artifact</size>\n**Artifact object**\n<size:10>ART_001</size>" as ART_001 [[../posts/2021/process_documents.html#ART_001]] #FEDCD2
database "<size:12>Storage</size>\n**Storage object**\n<size:10>STO_001</size>" as STO_001 [[../posts/2021/process_documents.html#STO_001]] #DF744A


WOR_001 -[#777777]-> ACT_001: executes\n
ACT_001 -[#AA0000]-> ART_001: produces\n
ACT_001 <-[#00AA00]- ART_001: consumes\n
ACT_001 -[#000000]-> STO_001: uses\n
STO_001 -[#0000AA]> ART_001: stores\n

@enduml

PlantUML version 1.2020.09(Sun May 10 10:51:06 UTC 2020)
(GPL source distribution)
Java Runtime: OpenJDK Runtime Environment
JVM: OpenJDK 64-Bit Server VM
Java Version: 17.0.15+6
Operating System: Linux
Default Encoding: UTF-8
Language: en
Country: null
--></g></svg>